<svg xmlns="http://www.w3.org/2000/svg" xmlns:xlink="http://www.w3.org/1999/xlink" version="1.1" id="Your_Icon" x="0px" y="0px" width="100px" height="100px" viewBox="0 0 100 100" enable-background="new 0 0 100 100" xml:space="preserve">
<g>
	<path fill="#000000" d="M25.306,18.053c-0.267-0.854-1.171-1.329-2.024-1.063c-0.854,0.264-1.332,1.17-1.07,2.024   c0.343,1.122,0.904,4.365-0.613,5.874c-1.351,1.343-4.513,2.253-5.617,2.49c-0.874,0.188-1.432,1.049-1.245,1.923   c0.164,0.76,0.835,1.282,1.583,1.282c0.111,0,0.226-0.012,0.339-0.036c0.501-0.107,4.958-1.108,7.226-3.361   C27.109,23.979,25.382,18.293,25.306,18.053z"/>
	<path fill="#000000" d="M96.641,61.979c-0.334-0.972-1.04-3.256-1.198-4.824c-0.035-0.365,0.337-1.364,0.637-2.169   c0.934-2.508,2.347-6.296,0.617-10.848c-1.606-4.231-4.371-7.044-6.285-8.598c1.156-0.986,2.19-2.644,1.721-5.909   c-1.081-7.532-1.999-8.948-8.932-13.769c-0.311-0.216-1.001-0.663-1.899-1.242c-2.46-1.588-6.576-4.246-8.341-5.727   C69.229,5.761,62.27,3.42,58.247,5.071c-6.22,2.549-7.259,11.16-7.301,11.525c-0.002,0.012,0.002,0.024,0,0.037   c-0.002,0.011-0.005,0.021-0.006,0.033c-0.045,0.658-0.507,7.464-1.028,16.09c-0.521-8.625-0.983-15.432-1.027-16.09   c-0.001-0.011-0.005-0.021-0.005-0.033c-0.001-0.013,0-0.025-0.001-0.037c-0.042-0.366-1.08-8.977-7.296-11.524   c-4.023-1.649-10.98,0.689-14.708,3.822c-1.764,1.481-5.877,4.138-8.335,5.726c-0.898,0.581-1.59,1.028-1.899,1.243   c-6.93,4.821-7.848,6.236-8.93,13.769c-0.469,3.265,0.564,4.922,1.721,5.909c-1.914,1.553-4.676,4.367-6.282,8.598   c-1.728,4.552-0.317,8.34,0.618,10.848c0.299,0.805,0.671,1.804,0.635,2.169c-0.172,1.726-0.964,4.137-1.198,4.827   c-0.842,1.312-3.64,7.041,3.945,16.521c2.53,3.162,5.303,2.953,7.751,2.768c1.904-0.146,3.703-0.281,5.769,1.037   c0.933,0.596,1.197,1.555,1.582,3.196c0.519,2.213,1.229,5.245,5.141,7.038C29.701,93.603,31.725,94,33.565,94   c2.869,0,5.293-0.969,7.669-1.917l0.257-0.104c5.744-2.289,6.531-6.498,6.631-7.937c0.742-0.74,1.332-1.475,1.79-2.219   c0.458,0.744,1.049,1.479,1.792,2.219c0.099,1.438,0.886,5.649,6.633,7.937l0.257,0.104C60.971,93.033,63.396,94,66.267,94   c1.841,0,3.865-0.399,6.178-1.457c3.911-1.793,4.623-4.825,5.143-7.038c0.385-1.642,0.646-2.601,1.582-3.196   c2.067-1.318,3.867-1.183,5.772-1.037c2.447,0.187,5.222,0.396,7.754-2.767C100.289,69.018,97.48,63.287,96.641,61.979z    M59.477,8.07c2.528-1.038,8.177,0.6,11.399,3.307c1.921,1.612,6.146,4.338,8.667,5.967c0.854,0.552,1.512,0.974,1.807,1.18   c6.202,4.313,6.627,4.962,7.576,11.569c0.359,2.5-0.416,2.945-1.585,3.618c-0.251,0.143-0.49,0.283-0.643,0.391   c-1.129,0.487-7.287-0.025-8.667-0.887c-0.759-0.475-1.759-0.242-2.233,0.515c-0.475,0.759-0.243,1.759,0.516,2.232   c1.351,0.844,5.216,1.562,8.318,1.562c0.912,0,1.754-0.065,2.45-0.205c0.163,0.071,0.331,0.125,0.506,0.141   c1.466,1.047,4.474,3.602,6.08,7.831c1.296,3.41,0.23,6.268-0.625,8.565c-0.444,1.191-0.812,2.235-0.818,3.231   c-0.141,0.143-0.257,0.312-0.339,0.508c-2.711,6.53-6.048,12.522-7.396,13.314c-1.81-0.21-2.02-0.979-2.33-3.052   c-0.286-1.915-0.768-5.119-5.064-5.119c-1.118,0-2.176,0.229-3.136,0.574c0.236-0.631,0.468-1.26,0.695-1.879   c0.479-1.315,0.935-2.556,1.343-3.436c0.829-1.785,1.839-2.755,3.091-2.964c2.609-0.446,5.965,2.36,7.045,3.478   c0.619,0.646,1.643,0.668,2.29,0.048c0.646-0.618,0.667-1.645,0.049-2.291c-0.515-0.536-5.169-5.217-9.912-4.433   c-2.354,0.393-4.205,2.006-5.502,4.798c-0.467,1.002-0.942,2.307-1.446,3.686c-0.22,0.597-0.458,1.25-0.714,1.923   c-1.593-1.382-3.123-1.591-4.17-1.727c-0.438-0.055-0.854-0.109-0.956-0.219c-0.816-0.887,0.904-3.321,2.081-4.528   c2.938-1.485,6.89-3.753,7.991-6.744c3.715-0.105,11.152-2.613,12.971-7.329c0.321-0.835-0.096-1.772-0.929-2.095   c-0.834-0.321-1.773,0.094-2.096,0.929c-1.12,2.905-6.969,5.264-10.194,5.264c-0.064,0-0.139-0.033-0.208-0.056   c-0.092-0.059-0.188-0.109-0.291-0.148c-1.773-1.2-4.638-7.948-4.901-11.27c-0.142-1.765,0.391-3.074,0.903-4.339   c0.321-0.789,0.624-1.535,0.748-2.348c0.296-1.921-1.121-3.193-2.259-4.216c-0.58-0.522-1.183-1.063-1.429-1.557   c-1.088-2.175,2.032-4.018,2.164-4.095c0.774-0.445,1.043-1.432,0.602-2.207c-0.441-0.778-1.431-1.051-2.209-0.606   c-2.055,1.17-5.422,4.424-3.455,8.357c0.522,1.044,1.394,1.826,2.162,2.518c0.126,0.114,0.277,0.249,0.43,0.392   c-0.879-0.17-2.187-0.623-3.067-0.929c-2.443-0.852-4.751-1.656-6.41-0.833c-0.691,0.343-1.186,0.923-1.431,1.679   c-0.851,2.615,1.131,5.589,2.878,8.215c0.773,1.161,1.65,2.477,1.816,3.166c0.44,1.824,0.302,3.212-0.412,4.128   c-1.146,1.472-3.523,1.522-3.573,1.523c-0.893,0.005-1.613,0.728-1.613,1.619c0,0.895,0.726,1.622,1.621,1.622   c0.16,0,3.964-0.032,6.103-2.748c1.366-1.736,1.712-4.059,1.025-6.904c-0.301-1.248-1.213-2.617-2.269-4.202   c-1.074-1.614-2.667-4.005-2.537-5.214c0.753-0.002,2.598,0.612,3.735,1.008c1.452,0.507,2.854,0.983,4.098,1.118   c-0.503,1.306-1.022,2.982-0.851,5.109c0.184,2.303,2.377,10.268,5.875,13.284c-0.439,1.442-3,3.322-7.633,5.605   c-0.859,0.423-1.253,0.618-1.528,0.827c-0.111,0.084-0.238,0.122-0.347,0.099c-0.161-0.034-0.348-0.22-0.514-0.506   c-0.113-0.2-0.188-0.626-0.259-1.041c-0.239-1.389-0.737-4.276-4.975-4.276c-2.225,0-4.078,2.041-5.533,4.625   c0.641-13.95,1.787-31.345,2.062-35.421c1.13,0.485,2.792,1.04,4.497,1.04c0.715,0,1.437-0.098,2.131-0.339   c1.52-0.531,2.661-1.68,3.306-3.324c0.325-0.833-0.085-1.772-0.919-2.099c-0.831-0.328-1.772,0.085-2.098,0.918   c-0.396,1.006-0.962,1.306-1.354,1.444c-1.502,0.525-3.84-0.376-4.952-0.929C55.391,12.26,56.772,9.178,59.477,8.07z M6.177,45.289   c1.595-4.201,4.621-6.776,6.084-7.83c0.174-0.017,0.339-0.069,0.498-0.139c0.696,0.139,1.536,0.204,2.449,0.204   c3.103,0,6.965-0.718,8.315-1.562c0.759-0.473,0.99-1.474,0.515-2.232c-0.474-0.757-1.472-0.99-2.232-0.515   c-1.378,0.862-7.533,1.375-8.594,0.926c-0.22-0.147-0.461-0.287-0.71-0.43c-1.17-0.673-1.943-1.116-1.584-3.618   c0.949-6.608,1.374-7.257,7.573-11.57c0.296-0.205,0.953-0.629,1.808-1.18c2.521-1.629,6.741-4.355,8.66-5.967   c3.221-2.705,8.864-4.343,11.395-3.305c2.726,1.118,4.099,4.19,4.756,6.412c-1.097,0.555-3.43,1.467-4.952,0.935   c-0.394-0.138-0.961-0.437-1.357-1.446c-0.325-0.833-1.266-1.246-2.099-0.918c-0.833,0.326-1.243,1.266-0.917,2.099   c0.643,1.644,1.786,2.794,3.307,3.324c0.691,0.242,1.413,0.339,2.128,0.339c1.703,0,3.364-0.555,4.494-1.04   c0.274,4.078,1.419,21.471,2.061,35.419c-1.456-2.583-3.307-4.624-5.53-4.624c-4.236,0-4.734,2.887-4.973,4.276   c-0.071,0.413-0.145,0.841-0.259,1.041c-0.165,0.286-0.352,0.472-0.514,0.506c-0.102,0.023-0.232-0.015-0.343-0.099   c-0.277-0.209-0.669-0.404-1.529-0.827c-4.633-2.283-7.19-4.165-7.629-5.606c3.495-3.017,5.689-10.979,5.873-13.283   c0.169-2.127-0.348-3.803-0.851-5.109c1.244-0.135,2.644-0.611,4.095-1.118c1.137-0.396,2.986-1.004,3.732-1.008   c0.129,1.209-1.462,3.601-2.536,5.214c-1.054,1.585-1.965,2.954-2.267,4.202c-0.687,2.846-0.341,5.168,1.026,6.906   c2.138,2.714,5.939,2.746,6.1,2.746c0.895,0,1.62-0.727,1.62-1.622c0-0.894-0.726-1.619-1.62-1.619   c-0.023,0-2.417-0.064-3.554-1.51c-0.721-0.917-0.864-2.31-0.422-4.14c0.167-0.691,1.042-2.006,1.814-3.167   c1.747-2.626,3.727-5.601,2.877-8.215c-0.246-0.755-0.74-1.336-1.432-1.679c-1.657-0.823-3.965-0.019-6.407,0.833   c-0.881,0.307-2.186,0.76-3.063,0.929c0.152-0.143,0.304-0.278,0.43-0.393c0.768-0.691,1.638-1.473,2.16-2.517   c1.967-3.934-1.398-7.187-3.453-8.357c-0.775-0.441-1.757-0.171-2.204,0.602c-0.444,0.773-0.178,1.762,0.594,2.21   c0.134,0.077,3.252,1.919,2.164,4.095c-0.246,0.494-0.847,1.035-1.428,1.557c-1.139,1.022-2.554,2.295-2.258,4.217   c0.126,0.812,0.428,1.558,0.748,2.348c0.514,1.266,1.044,2.574,0.904,4.338c-0.264,3.321-3.125,10.067-4.899,11.269   c-0.102,0.041-0.2,0.091-0.292,0.149c-0.069,0.023-0.141,0.056-0.207,0.056c-3.222,0-9.07-2.359-10.19-5.264   c-0.321-0.835-1.26-1.25-2.094-0.929c-0.835,0.322-1.251,1.26-0.93,2.095c1.818,4.715,9.252,7.223,12.966,7.329   c1.1,2.991,5.053,5.259,7.99,6.745c1.179,1.203,2.901,3.634,2.076,4.527c-0.101,0.109-0.515,0.164-0.954,0.219   c-1.047,0.136-2.577,0.345-4.167,1.726c-0.256-0.672-0.495-1.325-0.713-1.922c-0.505-1.379-0.981-2.682-1.447-3.686   c-1.295-2.792-3.146-4.405-5.5-4.798c-4.741-0.786-9.394,3.896-9.909,4.435c-0.618,0.646-0.596,1.671,0.049,2.29   s1.672,0.598,2.291-0.049c0.996-1.041,4.431-3.928,7.037-3.479c1.251,0.208,2.264,1.177,3.093,2.965   c0.409,0.88,0.862,2.12,1.342,3.435c0.227,0.62,0.458,1.249,0.695,1.88c-0.958-0.345-2.017-0.574-3.135-0.574   c-4.295,0-4.775,3.204-5.062,5.119c-0.311,2.072-0.519,2.842-2.328,3.052c-1.347-0.792-4.681-6.784-7.392-13.314   c-0.081-0.197-0.199-0.367-0.339-0.51c-0.007-0.995-0.375-2.038-0.817-3.229C5.946,51.559,4.882,48.7,6.177,45.289z M45.426,82.145   c-1.407,1.285-2.887,1.833-4.511,1.67c-4.403-0.434-8.387-5.748-8.465-5.854c-0.529-0.722-1.543-0.877-2.263-0.349   c-0.723,0.528-0.878,1.542-0.35,2.264c0.197,0.269,4.882,6.578,10.748,7.164c0.3,0.029,0.597,0.044,0.89,0.044   c0.702,0,1.385-0.095,2.052-0.264c-0.682,0.766-1.699,1.539-3.234,2.15l-0.26,0.104c-3.711,1.482-6.643,2.652-11.292,0.521   c-2.468-1.131-2.852-2.764-3.336-4.83c-0.423-1.808-0.903-3.854-2.993-5.188c-2.974-1.899-5.626-1.699-7.757-1.539   c-2.195,0.166-3.515,0.267-4.976-1.559c-6.767-8.459-3.86-12.601-3.754-12.747l0.265-0.472c0.015-0.043,0.135-0.382,0.301-0.9   c3.539,7.837,6.49,11.803,8.792,11.803c0.061,0,0.121-0.004,0.18-0.008c4.612-0.424,5.119-3.801,5.42-5.817   c0.31-2.063,0.447-2.36,1.858-2.36c2.441,0,4.658,1.769,5.412,2.44c1.143,2.021,2.521,3.605,4.304,4.168   c2.47,0.778,3.717,0.577,5.296,0.324c0.234-0.037,0.481-0.077,0.749-0.116c1.254-0.186,2.192,0.011,2.873,0.594   c1.149,0.983,1.417,2.977,1.423,3.654c0,0.894,0.725,1.619,1.62,1.619c0.895,0,1.62-0.726,1.62-1.619   c0-0.401-0.072-3.969-2.536-6.098c-0.974-0.842-2.715-1.762-5.47-1.357c-0.285,0.043-0.547,0.085-0.795,0.124   c-1.422,0.229-2.068,0.334-3.806-0.215c-0.904-0.285-1.766-1.404-2.554-2.854l0.036-0.03c-0.03-0.043-0.723-1.069-0.165-1.643   c0.982-1.01,1.811-1.117,2.769-1.24c0.902-0.116,2.022-0.262,2.922-1.237c1.335-1.447,1.277-3.234,0.619-4.919   c0.031-0.005,0.062-0.003,0.093-0.008c1.087-0.227,2.036-0.962,2.67-2.072c0.398-0.693,0.526-1.439,0.64-2.099   c0.232-1.343,0.273-1.586,1.78-1.586c1.685,0,4.465,5.959,5.907,11.427c0.047,1.844,0.069,3.464,0.059,4.779   c-0.012,1.528,0.02,2.896,0.047,4.102C48.371,77.279,48.418,79.414,45.426,82.145z M90.165,76.48   c-1.463,1.826-2.785,1.725-4.979,1.559c-2.131-0.161-4.784-0.361-7.76,1.538c-2.093,1.334-2.571,3.381-2.995,5.188   c-0.484,2.067-0.868,3.7-3.339,4.831c-4.651,2.135-7.585,0.961-11.298-0.522l-0.259-0.104c-1.537-0.611-2.554-1.385-3.236-2.15   c0.667,0.169,1.352,0.264,2.055,0.264c0.293,0,0.59-0.015,0.89-0.044c5.868-0.586,10.556-6.896,10.752-7.163   c0.528-0.722,0.373-1.736-0.348-2.265c-0.723-0.526-1.737-0.373-2.266,0.349c-1.102,1.504-4.77,5.486-8.461,5.854   c-1.638,0.17-3.111-0.382-4.521-1.669c-2.996-2.73-2.947-4.865-2.83-10.026c0.027-1.207,0.058-2.574,0.046-4.103   c-0.009-1.316,0.013-2.937,0.06-4.78c1.439-5.468,4.22-11.426,5.91-11.426c1.508,0,1.549,0.243,1.781,1.588   c0.113,0.657,0.241,1.403,0.64,2.097c0.634,1.11,1.582,1.845,2.669,2.072c0.032,0.005,0.063,0.003,0.095,0.008   c-0.659,1.685-0.717,3.472,0.62,4.919c0.901,0.976,2.021,1.121,2.922,1.237c0.96,0.123,1.789,0.23,2.772,1.24   c0.558,0.573-0.136,1.6-0.155,1.631l0.034,0.029c-0.79,1.456-1.655,2.579-2.562,2.866c-1.74,0.549-2.388,0.444-3.81,0.215   c-0.248-0.039-0.51-0.081-0.795-0.124c-2.758-0.401-4.499,0.516-5.473,1.358c-2.464,2.129-2.535,5.695-2.535,6.097   c0,0.894,0.726,1.619,1.62,1.619s1.62-0.726,1.62-1.619c0-0.63,0.261-2.648,1.414-3.646c0.682-0.588,1.623-0.79,2.884-0.602   c0.269,0.039,0.517,0.079,0.75,0.116c1.582,0.255,2.828,0.454,5.298-0.324c1.787-0.562,3.162-2.146,4.307-4.168   c0.759-0.677,2.974-2.44,5.413-2.44c1.412,0,1.551,0.297,1.86,2.36c0.303,2.018,0.81,5.394,5.422,5.817   c0.061,0.004,0.12,0.008,0.18,0.008c2.305-0.001,5.257-3.967,8.798-11.805c0.166,0.521,0.287,0.859,0.302,0.902l0.265,0.472   C93.953,63.773,96.967,67.982,90.165,76.48z"/>
	<path fill="#000000" d="M83.18,30.547c0.114,0.024,0.229,0.036,0.34,0.036c0.748,0,1.421-0.522,1.583-1.283   c0.187-0.875-0.372-1.736-1.246-1.922c-1.028-0.219-4.268-1.146-5.618-2.49c-1.52-1.509-0.958-4.751-0.616-5.869   c0.268-0.855-0.209-1.764-1.062-2.03c-0.85-0.263-1.763,0.208-2.03,1.062c-0.076,0.241-1.804,5.926,1.423,9.135   C78.221,29.439,82.68,30.44,83.18,30.547z"/>
</g>
</svg>